<svg xmlns="http://www.w3.org/2000/svg" xmlns:xlink="http://www.w3.org/1999/xlink" width="500" zoomAndPan="magnify" viewBox="0 0 375 374.999991" height="500" preserveAspectRatio="xMidYMid meet" version="1.0"><defs><g/><clipPath id="82eb454606"><path d="M 105.582031 174 L 295 174 L 295 192 L 105.582031 192 Z M 105.582031 174 " clip-rule="nonzero"/></clipPath><clipPath id="c6112b491e"><path d="M 154 119 L 242 119 L 242 202 L 154 202 Z M 154 119 " clip-rule="nonzero"/></clipPath><clipPath id="dbfcdcfdce"><path d="M 179.539062 107.6875 L 245.953125 142.53125 L 211.109375 208.945312 L 144.695312 174.101562 Z M 179.539062 107.6875 " clip-rule="nonzero"/></clipPath><clipPath id="6d0189ea0c"><path d="M 179.539062 107.6875 L 245.953125 142.53125 L 211.109375 208.945312 L 144.695312 174.101562 Z M 179.539062 107.6875 " clip-rule="nonzero"/></clipPath><clipPath id="6bc12239e5"><path d="M 202 209 L 215 209 L 215 223 L 202 223 Z M 202 209 " clip-rule="nonzero"/></clipPath><clipPath id="c885c8f74c"><path d="M 201.855469 210.1875 L 214.53125 208.816406 L 215.902344 221.492188 L 203.226562 222.863281 Z M 201.855469 210.1875 " clip-rule="nonzero"/></clipPath><clipPath id="2b6b0e0a98"><path d="M 201.855469 210.1875 L 214.53125 208.816406 L 215.902344 221.492188 L 203.226562 222.863281 Z M 201.855469 210.1875 " clip-rule="nonzero"/></clipPath></defs><g clip-path="url(#82eb454606)"><path fill="#ffde59" d="M 106.824219 184.742188 C 106.304688 185.546875 105.597656 184.914062 106.050781 184.207031 C 122.683594 158.21875 133.117188 193.472656 166.558594 190.515625 C 218.050781 185.957031 261.089844 171.414062 293.125 183.933594 C 295.359375 184.808594 293.789062 186.640625 291.90625 185.785156 C 265.242188 173.664062 215.710938 186.355469 166.335938 191.496094 C 132.882812 194.980469 123.425781 159.179688 106.824219 184.742188 Z M 106.824219 184.742188 " fill-opacity="1" fill-rule="nonzero"/></g><g clip-path="url(#c6112b491e)"><g clip-path="url(#dbfcdcfdce)"><g clip-path="url(#6d0189ea0c)"><path fill="#ffde59" d="M 172.828125 120.859375 L 176.9375 119.457031 C 179.304688 118.71875 181.632812 120.625 181.632812 120.625 L 188.824219 125.753906 L 194.765625 123.964844 C 197.902344 123.011719 198.136719 127.105469 196.757812 127.753906 L 193.511719 129.046875 L 201.046875 134.972656 L 205.613281 133.148438 C 210.542969 131.109375 211.082031 135.558594 208.707031 136.765625 L 205.660156 138.128906 L 217.335938 146.34375 C 233.570312 141.597656 240.234375 139.59375 241.726562 143.644531 C 243.226562 147.722656 235.480469 150.214844 220.339844 155.203125 L 215.328125 169.085938 L 219.109375 168.269531 C 221.335938 167.789062 223 171.308594 218.742188 172.523438 L 213.335938 174.042969 L 210.414062 183.316406 L 213.582031 182.761719 C 216.414062 182.214844 217.726562 185.589844 213.519531 187.0625 L 208.03125 188.804688 C 207.828125 188.835938 205.300781 196.851562 205.300781 196.851562 C 204.230469 200.867188 201.523438 201.117188 201.523438 201.117188 L 197.933594 201.980469 L 202.476562 170.574219 C 202.921875 167.835938 202.285156 164.273438 198.847656 162.851562 C 197.015625 162.125 191.074219 162.792969 190.113281 163.1875 L 174.835938 167.644531 C 174.480469 167.695312 169.726562 181.179688 169.726562 181.179688 C 169.53125 181.550781 164.097656 184.089844 164.097656 184.089844 L 163.683594 169.246094 L 159.734375 169.058594 L 163.109375 167.136719 L 154.972656 154.511719 L 160.980469 153.605469 C 162.796875 155.171875 172.992188 162.078125 173.273438 162.085938 C 173.273438 162.085938 186.703125 157.941406 187.484375 157.675781 C 192.015625 156.132812 193.597656 155.5 194.835938 154.214844 C 196.078125 152.929688 196.488281 150.304688 193.390625 145.089844 C 189.117188 137.890625 172.828125 120.859375 172.828125 120.859375 Z M 172.828125 120.859375 " fill-opacity="1" fill-rule="nonzero"/></g></g></g><g fill="#000000" fill-opacity="1"><g transform="translate(128.059977, 220.264483)"><g><path d="M 0.375 -4.484375 C 0.375 -5.367188 0.550781 -6.15625 0.90625 -6.84375 C 1.269531 -7.539062 1.785156 -8.078125 2.453125 -8.453125 C 3.117188 -8.835938 3.898438 -9.03125 4.796875 -9.03125 C 5.578125 -9.03125 6.269531 -8.882812 6.875 -8.59375 C 7.488281 -8.3125 7.988281 -7.90625 8.375 -7.375 C 8.757812 -6.84375 9.015625 -6.222656 9.140625 -5.515625 L 6.1875 -5.515625 C 6.050781 -5.804688 5.859375 -6.035156 5.609375 -6.203125 C 5.359375 -6.367188 5.070312 -6.453125 4.75 -6.453125 C 4.28125 -6.453125 3.90625 -6.273438 3.625 -5.921875 C 3.351562 -5.566406 3.21875 -5.085938 3.21875 -4.484375 C 3.21875 -3.890625 3.351562 -3.414062 3.625 -3.0625 C 3.90625 -2.707031 4.28125 -2.53125 4.75 -2.53125 C 5.070312 -2.53125 5.359375 -2.609375 5.609375 -2.765625 C 5.859375 -2.929688 6.050781 -3.164062 6.1875 -3.46875 L 9.140625 -3.46875 C 9.015625 -2.757812 8.757812 -2.140625 8.375 -1.609375 C 7.988281 -1.078125 7.488281 -0.664062 6.875 -0.375 C 6.269531 -0.0820312 5.578125 0.0625 4.796875 0.0625 C 3.898438 0.0625 3.117188 -0.128906 2.453125 -0.515625 C 1.785156 -0.898438 1.269531 -1.4375 0.90625 -2.125 C 0.550781 -2.8125 0.375 -3.597656 0.375 -4.484375 Z M 0.375 -4.484375 "/></g></g></g><g fill="#000000" fill-opacity="1"><g transform="translate(140.831071, 220.264483)"><g><path d="M 8.90625 -8.953125 L 8.90625 0 L 6.109375 0 L 6.109375 -3.484375 L 3.4375 -3.484375 L 3.4375 0 L 0.625 0 L 0.625 -8.953125 L 3.4375 -8.953125 L 3.4375 -5.71875 L 6.109375 -5.71875 L 6.109375 -8.953125 Z M 8.90625 -8.953125 "/></g></g></g><g fill="#000000" fill-opacity="1"><g transform="translate(153.627444, 220.264483)"><g><path d="M 6.375 -1.359375 L 3.390625 -1.359375 L 2.9375 0 L 0 0 L 3.28125 -8.953125 L 6.515625 -8.953125 L 9.765625 0 L 6.8125 0 Z M 5.6875 -3.46875 L 4.875 -5.953125 L 4.0625 -3.46875 Z M 5.6875 -3.46875 "/></g></g></g><g fill="#000000" fill-opacity="1"><g transform="translate(166.651417, 220.264483)"><g><path d="M 4.359375 -8.953125 C 5.296875 -8.953125 6.113281 -8.757812 6.8125 -8.375 C 7.519531 -8 8.0625 -7.472656 8.4375 -6.796875 C 8.820312 -6.128906 9.015625 -5.363281 9.015625 -4.5 C 9.015625 -3.644531 8.820312 -2.875 8.4375 -2.1875 C 8.0625 -1.507812 7.519531 -0.972656 6.8125 -0.578125 C 6.113281 -0.191406 5.296875 0 4.359375 0 L 0.625 0 L 0.625 -8.953125 Z M 4.109375 -2.5 C 4.742188 -2.5 5.242188 -2.671875 5.609375 -3.015625 C 5.984375 -3.367188 6.171875 -3.863281 6.171875 -4.5 C 6.171875 -5.132812 5.984375 -5.625 5.609375 -5.96875 C 5.242188 -6.320312 4.742188 -6.5 4.109375 -6.5 L 3.4375 -6.5 L 3.4375 -2.5 Z M 4.109375 -2.5 "/></g></g></g><g fill="#000000" fill-opacity="1"><g transform="translate(179.296065, 220.264483)"><g><path d="M 3.4375 -8.953125 L 3.4375 0 L 0.625 0 L 0.625 -8.953125 Z M 3.4375 -8.953125 "/></g></g></g><g fill="#000000" fill-opacity="1"><g transform="translate(186.617388, 220.264483)"><g/></g></g><g fill="#000000" fill-opacity="1"><g transform="translate(192.016744, 220.264483)"><g><path d="M 3.4375 -6.71875 L 3.4375 -5.609375 L 6.21875 -5.609375 L 6.21875 -3.5 L 3.4375 -3.5 L 3.4375 -2.234375 L 6.59375 -2.234375 L 6.59375 0 L 0.625 0 L 0.625 -8.953125 L 6.59375 -8.953125 L 6.59375 -6.71875 Z M 3.4375 -6.71875 "/></g></g></g><g fill="#000000" fill-opacity="1"><g transform="translate(202.286535, 220.264483)"><g/></g></g><g fill="#000000" fill-opacity="1"><g transform="translate(207.685893, 220.264483)"><g/></g></g><g fill="#000000" fill-opacity="1"><g transform="translate(213.085252, 220.264483)"><g/></g></g><g fill="#000000" fill-opacity="1"><g transform="translate(218.481846, 220.264483)"><g><path d="M 7.953125 -5.875 C 7.953125 -5.3125 7.820312 -4.800781 7.5625 -4.34375 C 7.300781 -3.882812 6.914062 -3.519531 6.40625 -3.25 C 5.894531 -2.976562 5.273438 -2.84375 4.546875 -2.84375 L 3.4375 -2.84375 L 3.4375 0 L 0.625 0 L 0.625 -8.953125 L 4.546875 -8.953125 C 5.640625 -8.953125 6.476562 -8.671875 7.0625 -8.109375 C 7.65625 -7.554688 7.953125 -6.8125 7.953125 -5.875 Z M 4.234375 -5.0625 C 4.816406 -5.0625 5.109375 -5.332031 5.109375 -5.875 C 5.109375 -6.425781 4.816406 -6.703125 4.234375 -6.703125 L 3.4375 -6.703125 L 3.4375 -5.0625 Z M 4.234375 -5.0625 "/></g></g></g><g fill="#000000" fill-opacity="1"><g transform="translate(229.93791, 220.264483)"><g><path d="M 5 0.09375 C 4.15625 0.09375 3.378906 -0.101562 2.671875 -0.5 C 1.972656 -0.894531 1.414062 -1.441406 1 -2.140625 C 0.582031 -2.847656 0.375 -3.640625 0.375 -4.515625 C 0.375 -5.390625 0.582031 -6.175781 1 -6.875 C 1.414062 -7.570312 1.972656 -8.113281 2.671875 -8.5 C 3.378906 -8.894531 4.15625 -9.09375 5 -9.09375 C 5.832031 -9.09375 6.597656 -8.894531 7.296875 -8.5 C 8.003906 -8.113281 8.5625 -7.570312 8.96875 -6.875 C 9.375 -6.175781 9.578125 -5.390625 9.578125 -4.515625 C 9.578125 -3.640625 9.375 -2.847656 8.96875 -2.140625 C 8.5625 -1.441406 8.003906 -0.894531 7.296875 -0.5 C 6.597656 -0.101562 5.832031 0.09375 5 0.09375 Z M 5 -2.53125 C 5.550781 -2.53125 5.976562 -2.707031 6.28125 -3.0625 C 6.582031 -3.425781 6.734375 -3.910156 6.734375 -4.515625 C 6.734375 -5.128906 6.582031 -5.613281 6.28125 -5.96875 C 5.976562 -6.332031 5.550781 -6.515625 5 -6.515625 C 4.425781 -6.515625 3.988281 -6.332031 3.6875 -5.96875 C 3.382812 -5.613281 3.234375 -5.128906 3.234375 -4.515625 C 3.234375 -3.910156 3.382812 -3.425781 3.6875 -3.0625 C 3.988281 -2.707031 4.425781 -2.53125 5 -2.53125 Z M 5 -2.53125 "/></g></g></g><g fill="#000000" fill-opacity="1"><g transform="translate(243.151557, 220.264483)"><g><path d="M 5.125 0 L 3.453125 -3.203125 L 3.4375 -3.203125 L 3.4375 0 L 0.625 0 L 0.625 -8.953125 L 4.796875 -8.953125 C 5.523438 -8.953125 6.144531 -8.820312 6.65625 -8.5625 C 7.175781 -8.300781 7.5625 -7.945312 7.8125 -7.5 C 8.070312 -7.0625 8.203125 -6.566406 8.203125 -6.015625 C 8.203125 -5.421875 8.035156 -4.890625 7.703125 -4.421875 C 7.367188 -3.960938 6.890625 -3.628906 6.265625 -3.421875 L 8.21875 0 Z M 3.4375 -5.078125 L 4.546875 -5.078125 C 4.816406 -5.078125 5.019531 -5.140625 5.15625 -5.265625 C 5.289062 -5.390625 5.359375 -5.582031 5.359375 -5.84375 C 5.359375 -6.070312 5.285156 -6.253906 5.140625 -6.390625 C 5.003906 -6.523438 4.804688 -6.59375 4.546875 -6.59375 L 3.4375 -6.59375 Z M 3.4375 -5.078125 "/></g></g></g><g fill="#000000" fill-opacity="1"><g transform="translate(254.873159, 220.264483)"><g><path d="M 7.65625 -8.953125 L 7.65625 -6.71875 L 5.28125 -6.71875 L 5.28125 0 L 2.484375 0 L 2.484375 -6.71875 L 0.125 -6.71875 L 0.125 -8.953125 Z M 7.65625 -8.953125 "/></g></g></g><g clip-path="url(#6bc12239e5)"><g clip-path="url(#c885c8f74c)"><g clip-path="url(#2b6b0e0a98)"><path fill="#ffde59" d="M 202.15625 212.683594 L 202.601562 212.097656 C 202.867188 211.769531 203.375 211.816406 203.375 211.816406 L 204.878906 211.859375 L 205.546875 211.046875 C 205.898438 210.613281 206.320312 211.167969 206.1875 211.390625 L 205.851562 211.878906 L 207.476562 212.003906 L 207.949219 211.3125 C 208.449219 210.558594 208.949219 211.136719 208.726562 211.53125 L 208.425781 212.011719 L 210.851562 212.066406 C 212.695312 209.859375 213.445312 208.945312 214.039062 209.375 C 214.636719 209.808594 213.78125 210.894531 212.117188 213.03125 L 212.722656 215.464844 L 213.179688 214.992188 C 213.449219 214.710938 214.015625 215.050781 213.53125 215.625 L 212.910156 216.351562 L 213.375 217.9375 L 213.769531 217.558594 C 214.121094 217.214844 214.625 217.566406 214.167969 218.171875 L 213.558594 218.9375 C 213.535156 218.960938 213.9375 220.332031 213.9375 220.332031 C 214.164062 220.996094 213.808594 221.289062 213.808594 221.289062 L 213.382812 221.75 L 211.050781 216.890625 C 210.851562 216.460938 210.425781 216.019531 209.804688 216.144531 C 209.476562 216.214844 208.703125 216.871094 208.605469 217.019531 L 206.871094 219.09375 C 206.824219 219.132812 207.429688 221.488281 207.429688 221.488281 C 207.4375 221.558594 206.910156 222.429688 206.910156 222.429688 L 205.445312 220.375 L 204.871094 220.722656 L 205.167969 220.132812 L 202.820312 219.121094 L 203.585938 218.425781 C 203.988281 218.472656 206.082031 218.484375 206.121094 218.457031 C 206.121094 218.457031 207.625 216.601562 207.710938 216.488281 C 208.203125 215.84375 208.367188 215.605469 208.421875 215.304688 C 208.476562 215.007812 208.285156 214.597656 207.351562 214.15625 C 206.066406 213.542969 202.15625 212.683594 202.15625 212.683594 Z M 202.15625 212.683594 " fill-opacity="1" fill-rule="nonzero"/></g></g></g></svg>